<?xml version="1.0" encoding="utf-8"?>
<!-- Generator: Adobe Illustrator 16.0.0, SVG Export Plug-In . SVG Version: 6.00 Build 0)  -->
<!DOCTYPE svg PUBLIC "-//W3C//DTD SVG 1.1//EN" "http://www.w3.org/Graphics/SVG/1.1/DTD/svg11.dtd">
<svg version="1.1" xmlns="http://www.w3.org/2000/svg" xmlns:xlink="http://www.w3.org/1999/xlink" x="0px" y="0px"
   width="70px" height="40px" viewBox="0 0 70 40" enable-background="new 0 0 70 40" xml:space="preserve">
<g>
  <path fill-rule="evenodd" clip-rule="evenodd" fill="#FFFFFF" d="M16.813,9.897c0,2.415,0,4.82,0,7.244
    c0.049-0.033,0.085-0.056,0.118-0.081c0.764-0.555,1.6-0.958,2.515-1.186c0.3-0.075,0.609-0.116,0.917-0.15
    c0.295-0.033,0.594-0.042,0.891-0.05c0.412-0.012,0.821,0.028,1.224,0.119c0.347,0.078,0.694,0.156,1.031,0.266
    c0.709,0.231,1.347,0.6,1.921,1.073c0.285,0.234,0.561,0.483,0.817,0.747c0.409,0.418,0.752,0.889,1.045,1.398
    c0.331,0.575,0.554,1.192,0.694,1.836c0.068,0.311,0.098,0.63,0.126,0.947c0.023,0.265,0.027,0.532,0.024,0.799
    c-0.005,0.572-0.097,1.137-0.248,1.688c-0.123,0.451-0.296,0.885-0.516,1.297c-0.222,0.414-0.477,0.805-0.786,1.158
    c-0.214,0.244-0.432,0.488-0.667,0.713c-0.588,0.562-1.25,1.014-2.001,1.338c-0.518,0.223-1.056,0.369-1.607,0.465
    c-0.539,0.094-1.087,0.104-1.629,0.068c-0.764-0.047-1.507-0.211-2.214-0.516c-0.537-0.23-1.05-0.504-1.521-0.85
    c-0.038-0.029-0.077-0.057-0.133-0.098c0,0.498,0,0.979,0,1.463c-0.869,0-1.724,0-2.591,0c0-5.648,0-11.298,0-16.96
    c-2.838,0-5.663,0-8.494,0c0-0.916,0-1.818,0-2.729C9.418,9.897,13.107,9.897,16.813,9.897z M21.177,18.263
    c-0.302,0.033-0.605,0.054-0.905,0.101c-0.471,0.074-0.903,0.262-1.311,0.502c-0.414,0.244-0.792,0.538-1.087,0.92
    c-0.208,0.27-0.412,0.547-0.58,0.843c-0.349,0.611-0.464,1.288-0.479,1.982c-0.005,0.201,0.029,0.402,0.044,0.604
    c0.035,0.459,0.172,0.893,0.37,1.305c0.267,0.553,0.627,1.043,1.111,1.426c0.256,0.201,0.518,0.404,0.802,0.559
    c0.696,0.377,1.448,0.521,2.241,0.477c0.34-0.02,0.672-0.057,1.001-0.145c0.684-0.184,1.271-0.535,1.783-1.014
    c0.381-0.355,0.687-0.77,0.924-1.234c0.245-0.479,0.393-0.986,0.425-1.518c0.024-0.391,0.031-0.786-0.037-1.179
    c-0.062-0.361-0.155-0.71-0.309-1.043c-0.295-0.643-0.717-1.186-1.27-1.629c-0.388-0.312-0.813-0.551-1.28-0.714
    C22.154,18.342,21.674,18.266,21.177,18.263z"/>
  <path fill-rule="evenodd" clip-rule="evenodd" fill="#FFFFFF" d="M1.478,35.275c0-0.898,0-1.758,0-2.625
    c0.032-0.004,0.062-0.01,0.093-0.01c0.882-0.012,1.667-0.299,2.373-0.822c0.583-0.434,1.042-0.973,1.358-1.627
    c0.201-0.414,0.342-0.85,0.373-1.314c0.022-0.324,0.047-0.648,0.047-0.975c0.003-4.062,0.002-8.127,0.002-12.19
    c0-0.047,0-0.095,0-0.151c0.864,0,1.721,0,2.592,0c0,0.044,0,0.086,0,0.129c0,4.335,0.004,8.671-0.007,13.007
    c-0.001,0.381-0.087,0.764-0.156,1.143c-0.111,0.609-0.338,1.18-0.63,1.725c-0.211,0.393-0.457,0.764-0.754,1.098
    c-0.225,0.252-0.449,0.506-0.693,0.738c-0.581,0.553-1.236,0.996-1.976,1.314c-0.521,0.225-1.062,0.377-1.621,0.465
    C2.151,35.23,1.819,35.244,1.478,35.275z"/>
  <path fill-rule="evenodd" clip-rule="evenodd" fill="#FFFFFF" d="M9.979,15.558c0.862,0,1.716,0,2.577,0c0,4.678,0,9.35,0,14.03
    c-0.86,0-1.714,0-2.577,0C9.979,24.914,9.979,20.241,9.979,15.558z"/>
  <path fill-rule="evenodd" clip-rule="evenodd" fill="#FFFFFF" d="M26.237,33.17c-0.52,0-1.033,0-1.55,0
    c0.076,0.357,0.572,0.535,0.886,0.305c0.117-0.084,0.193-0.086,0.298-0.008c0.054,0.041,0.117,0.068,0.176,0.102
    c-0.198,0.371-0.787,0.527-1.223,0.326c-0.493-0.227-0.725-0.797-0.529-1.299c0.197-0.508,0.76-0.77,1.28-0.6
    C26.052,32.154,26.363,32.695,26.237,33.17z M25.808,32.754c-0.067-0.242-0.316-0.41-0.588-0.4c-0.249,0.01-0.49,0.189-0.53,0.4
    C25.062,32.754,25.434,32.754,25.808,32.754z"/>
  <path fill-rule="evenodd" clip-rule="evenodd" fill="#FFFFFF" d="M17.259,33.168c-0.257,0-0.517,0-0.775,0
    c-0.256,0-0.512,0-0.769,0c0.054,0.41,0.589,0.52,1.022,0.213c0.11,0.061,0.224,0.125,0.338,0.189
    c-0.265,0.406-0.86,0.535-1.297,0.291c-0.47-0.266-0.66-0.846-0.434-1.326c0.231-0.49,0.801-0.717,1.305-0.52
    C17.104,32.195,17.394,32.736,17.259,33.168z M15.703,32.756c0.382,0,0.754,0,1.127,0c-0.051-0.213-0.274-0.385-0.513-0.402
    C16.045,32.336,15.801,32.49,15.703,32.756z"/>
  <path fill-rule="evenodd" clip-rule="evenodd" fill="#FFFFFF" d="M12.181,33.984c-0.565-0.004-1.014-0.463-1.009-1.031
    c0.005-0.564,0.467-1.014,1.035-1.008c0.557,0.006,1.006,0.465,1.004,1.027C13.208,33.535,12.748,33.988,12.181,33.984z
     M11.58,32.955c-0.004,0.338,0.263,0.617,0.599,0.621c0.338,0.006,0.617-0.262,0.624-0.596c0.007-0.342-0.266-0.625-0.605-0.627
    C11.86,32.35,11.584,32.619,11.58,32.955z"/>
  <path fill-rule="evenodd" clip-rule="evenodd" fill="#FFFFFF" d="M19.589,32.441c-0.112,0.068-0.225,0.135-0.335,0.201
    c-0.338-0.346-0.7-0.383-0.974-0.104c-0.24,0.246-0.231,0.633,0.021,0.871c0.274,0.26,0.646,0.215,0.95-0.125
    c0.108,0.066,0.22,0.133,0.331,0.199c-0.154,0.352-0.622,0.561-1.07,0.479c-0.437-0.08-0.79-0.486-0.811-0.934
    c-0.023-0.488,0.274-0.912,0.733-1.043C18.882,31.857,19.364,32.045,19.589,32.441z"/>
  <path fill-rule="evenodd" clip-rule="evenodd" fill="#FFFFFF" d="M10.732,33.488c-0.215,0.385-0.689,0.578-1.131,0.465
    c-0.433-0.111-0.751-0.518-0.758-0.967c-0.007-0.471,0.295-0.879,0.742-1.004c0.444-0.123,0.91,0.059,1.148,0.459
    c-0.111,0.066-0.222,0.133-0.332,0.199c-0.379-0.348-0.714-0.379-0.982-0.094c-0.235,0.248-0.225,0.623,0.022,0.859
    c0.275,0.264,0.627,0.221,0.957-0.119C10.508,33.354,10.621,33.42,10.732,33.488z"/>
  <path fill-rule="evenodd" clip-rule="evenodd" fill="#FFFFFF" d="M20.23,31.133c0.143,0,0.266,0,0.404,0c0,0.27,0,0.535,0,0.809
    c0.21,0,0.404,0,0.607,0c0,0.139,0,0.268,0,0.408c-0.194,0-0.389,0-0.605,0c0.017,0.285-0.043,0.564,0.044,0.836
    c0.072,0.223,0.254,0.342,0.565,0.402c0,0.127,0,0.252,0,0.393c-0.248,0.006-0.461-0.074-0.646-0.23
    c-0.224-0.189-0.357-0.43-0.364-0.727c-0.005-0.221-0.001-0.439-0.001-0.666c-0.074,0-0.133,0-0.2,0c0-0.139,0-0.268,0-0.406
    c0.062-0.004,0.123-0.008,0.195-0.014C20.23,31.67,20.23,31.408,20.23,31.133z"/>
  <path fill-rule="evenodd" clip-rule="evenodd" fill="#FFFFFF" d="M23.293,32.959c0.146-0.324,0.282-0.621,0.412-0.92
    c0.031-0.074,0.072-0.102,0.151-0.096c0.104,0.008,0.207,0.002,0.329,0.002c-0.297,0.676-0.589,1.342-0.895,2.039
    c-0.305-0.693-0.598-1.357-0.897-2.039c0.143,0,0.269-0.006,0.394,0.004c0.029,0.002,0.064,0.051,0.081,0.084
    c0.122,0.264,0.241,0.529,0.361,0.795C23.245,32.863,23.264,32.898,23.293,32.959z"/>
  <path fill-rule="evenodd" clip-rule="evenodd" fill="#FFFFFF" d="M14.834,33.979c-0.134,0-0.26,0-0.393,0c0-0.949,0-1.893,0-2.844
    c0.132,0,0.258,0,0.393,0C14.834,32.08,14.834,33.025,14.834,33.979z"/>
  <path fill-rule="evenodd" clip-rule="evenodd" fill="#FFFFFF" d="M14.018,33.98c-0.133,0-0.259,0-0.392,0c0-0.949,0-1.895,0-2.846
    c0.13,0,0.257,0,0.392,0C14.018,32.08,14.018,33.023,14.018,33.98z"/>
  <path fill-rule="evenodd" clip-rule="evenodd" fill="#FFFFFF" d="M22.064,31.953c0,0.678,0,1.346,0,2.021c-0.13,0-0.259,0-0.396,0
    c0-0.67,0-1.342,0-2.021C21.796,31.953,21.925,31.953,22.064,31.953z"/>
  <path fill-rule="evenodd" clip-rule="evenodd" fill="#FFFFFF" d="M21.666,31.131c0.136,0,0.259,0,0.392,0c0,0.131,0,0.26,0,0.398
    c-0.126,0-0.255,0-0.392,0C21.666,31.398,21.666,31.271,21.666,31.131z"/>
</g>
<g>
  <path fill="#FFFFFF" d="M44.531,14.347v0.737c0,0.306-0.072,0.54-0.217,0.696c-0.154,0.18-0.418,0.27-0.768,0.27
    c-0.311,0-0.574-0.054-0.803-0.168v1.445c0,0.066-0.055,0.114-0.113,0.114c-0.066,0-0.115-0.048-0.115-0.114v-3.838
    c0-0.06,0.049-0.114,0.115-0.114c0.059,0,0.113,0.054,0.113,0.114v0.06c0.229-0.114,0.498-0.174,0.803-0.174
    c0.35,0,0.613,0.096,0.768,0.276C44.459,13.801,44.531,14.035,44.531,14.347z M44.303,14.347c0-0.252-0.053-0.432-0.156-0.546
    c-0.113-0.132-0.316-0.198-0.6-0.198c-0.275,0-0.516,0.054-0.719,0.156c-0.006,0-0.049,0.018-0.084,0.048v1.811
    c0.012,0.012,0.029,0.024,0.055,0.036l0.029,0.024c0.197,0.096,0.432,0.15,0.719,0.15c0.283,0,0.486-0.066,0.6-0.198
    c0.104-0.114,0.156-0.294,0.156-0.546V14.347z"/>
  <path fill="#FFFFFF" d="M46.775,13.495c0,0.06-0.055,0.108-0.113,0.108c-0.025,0-0.043,0-0.066,0c-0.289,0-0.521,0.048-0.732,0.156
    c0,0-0.023,0.012-0.059,0.03v2.153c0,0.066-0.049,0.114-0.115,0.114c-0.061,0-0.113-0.048-0.113-0.114v-2.195
    c0-0.012,0-0.018,0-0.03v-0.228c0-0.06,0.053-0.114,0.113-0.114c0.066,0,0.115,0.054,0.115,0.114v0.048
    c0.227-0.108,0.484-0.162,0.791-0.162c0.023,0,0.047,0,0.072,0C46.732,13.381,46.781,13.429,46.775,13.495z"/>
  <path fill="#FFFFFF" d="M47.467,15.09v-0.75c0-0.966,0.73-0.966,0.977-0.966s0.979,0,0.979,0.966v0.75
    c0,0.959-0.732,0.965-0.979,0.965S47.467,16.056,47.467,15.09z M47.688,14.341v0.75c0,0.647,0.365,0.737,0.756,0.737
    s0.756-0.09,0.756-0.737v-0.75c0-0.648-0.365-0.738-0.756-0.738S47.688,13.693,47.688,14.341z"/>
  <path fill="#FFFFFF" d="M52.426,13.489v2.369c0,0.959-0.629,1.577-1.594,1.577c-0.066,0-0.115-0.048-0.115-0.114
    c0-0.06,0.049-0.114,0.115-0.114c0.838,0,1.361-0.51,1.367-1.331c-0.246,0.12-0.535,0.18-0.852,0.18
    c-0.373,0-0.643-0.09-0.805-0.27c-0.148-0.156-0.227-0.39-0.227-0.695v-0.744c0-0.306,0.078-0.54,0.227-0.696
    c0.162-0.18,0.432-0.27,0.805-0.27c0.33,0,0.605,0.06,0.852,0.174v-0.066c0-0.06,0.053-0.114,0.113-0.114
    S52.426,13.429,52.426,13.489z M52.199,15.618v-1.799c-0.02-0.012-0.037-0.024-0.066-0.042l-0.037-0.018
    c-0.203-0.102-0.449-0.15-0.748-0.15c-0.307,0-0.516,0.066-0.643,0.198c-0.107,0.114-0.162,0.293-0.162,0.54v0.744
    c0,0.246,0.055,0.426,0.162,0.54c0.127,0.132,0.336,0.198,0.643,0.198c0.287,0,0.533-0.054,0.756-0.156
    C52.109,15.672,52.156,15.648,52.199,15.618z"/>
  <path fill="#FFFFFF" d="M54.611,13.495c0,0.06-0.055,0.108-0.115,0.108c-0.023,0-0.041,0-0.064,0c-0.289,0-0.523,0.048-0.732,0.156
    c0,0-0.023,0.012-0.061,0.03v2.153c0,0.066-0.047,0.114-0.113,0.114c-0.061,0-0.113-0.048-0.113-0.114v-2.195
    c0-0.012,0-0.018,0-0.03v-0.228c0-0.06,0.053-0.114,0.113-0.114c0.066,0,0.113,0.054,0.113,0.114v0.048
    c0.229-0.108,0.486-0.162,0.793-0.162c0.023,0,0.047,0,0.07,0C54.568,13.381,54.617,13.429,54.611,13.495z"/>
  <path fill="#FFFFFF" d="M57.273,14.347v0.318c0,0.06-0.053,0.114-0.113,0.114h-1.631v0.312c0,0.246,0.055,0.426,0.162,0.54
    c0.125,0.132,0.336,0.198,0.635,0.198c0.264,0,0.486-0.036,0.66-0.102c0.061-0.024,0.127,0,0.15,0.06
    c0.023,0.06-0.006,0.126-0.066,0.15c-0.203,0.078-0.449,0.12-0.744,0.12c-0.365,0-0.635-0.09-0.797-0.27
    c-0.15-0.156-0.229-0.384-0.229-0.695v-0.75c0-0.306,0.078-0.534,0.229-0.696s0.396-0.252,0.719-0.27v0.006v-0.006
    c0.367,0,0.637,0.096,0.799,0.276C57.203,13.807,57.273,14.035,57.273,14.347z M57.047,14.347c0-0.252-0.055-0.426-0.162-0.546
    c-0.127-0.132-0.336-0.198-0.629-0.198c-0.266,0.012-0.451,0.078-0.564,0.198c-0.107,0.114-0.162,0.294-0.162,0.54v0.209h1.518
    V14.347z"/>
  <path fill="#FFFFFF" d="M58.254,15.96c-0.061-0.018-0.098-0.084-0.078-0.144c0.018-0.06,0.084-0.09,0.143-0.072
    c0.336,0.102,0.805,0.132,1.043-0.042c0.115-0.084,0.168-0.204,0.168-0.366c0-0.377-0.293-0.498-0.635-0.642
    c-0.318-0.132-0.678-0.288-0.678-0.708c0-0.174,0.061-0.318,0.186-0.42c0.307-0.258,0.906-0.186,1.146-0.144
    c0.059,0.006,0.102,0.066,0.096,0.132c-0.012,0.06-0.072,0.102-0.133,0.09c-0.342-0.06-0.773-0.066-0.965,0.096
    c-0.072,0.06-0.102,0.138-0.102,0.246c0,0.258,0.203,0.36,0.539,0.498c0.342,0.144,0.768,0.324,0.768,0.852
    c0,0.234-0.084,0.42-0.252,0.546c-0.174,0.126-0.402,0.174-0.635,0.174C58.648,16.056,58.428,16.014,58.254,15.96z"/>
  <path fill="#FFFFFF" d="M60.611,15.96c-0.061-0.018-0.096-0.084-0.078-0.144s0.084-0.09,0.145-0.072
    c0.336,0.102,0.803,0.132,1.043-0.042c0.113-0.084,0.168-0.204,0.168-0.366c0-0.377-0.295-0.498-0.637-0.642
    c-0.316-0.132-0.676-0.288-0.676-0.708c0-0.174,0.059-0.318,0.186-0.42c0.305-0.258,0.904-0.186,1.145-0.144
    c0.061,0.006,0.102,0.066,0.096,0.132c-0.012,0.06-0.072,0.102-0.131,0.09c-0.342-0.06-0.773-0.066-0.967,0.096
    c-0.07,0.06-0.102,0.138-0.102,0.246c0,0.258,0.205,0.36,0.541,0.498c0.342,0.144,0.768,0.324,0.768,0.852
    c0,0.234-0.084,0.42-0.252,0.546c-0.174,0.126-0.402,0.174-0.637,0.174C61.008,16.056,60.785,16.014,60.611,15.96z"/>
  <path fill="#FFFFFF" d="M63.365,12.602c0,0.09-0.078,0.168-0.168,0.168s-0.162-0.078-0.162-0.168s0.072-0.162,0.162-0.162
    S63.365,12.512,63.365,12.602z M63.311,13.489v2.453c0,0.066-0.049,0.114-0.113,0.114c-0.061,0-0.109-0.048-0.109-0.114v-2.453
    c0-0.06,0.049-0.114,0.109-0.114C63.262,13.375,63.311,13.429,63.311,13.489z"/>
  <path fill="#FFFFFF" d="M65.068,15.984l-0.922-2.453c-0.02-0.06,0.012-0.126,0.064-0.15c0.061-0.018,0.127,0.012,0.15,0.066
    l0.816,2.17l0.814-2.17c0.025-0.054,0.09-0.084,0.15-0.066c0.055,0.024,0.084,0.09,0.066,0.15l-0.924,2.453
    c-0.018,0.042-0.061,0.072-0.107,0.072C65.129,16.056,65.088,16.026,65.068,15.984z"/>
  <path fill="#FFFFFF" d="M68.902,14.347v0.318c0,0.06-0.055,0.114-0.113,0.114h-1.631v0.312c0,0.246,0.053,0.426,0.162,0.54
    c0.125,0.132,0.334,0.198,0.635,0.198c0.264,0,0.486-0.036,0.66-0.102c0.059-0.024,0.125,0,0.148,0.06
    c0.025,0.06-0.006,0.126-0.064,0.15c-0.205,0.078-0.451,0.12-0.744,0.12c-0.365,0-0.635-0.09-0.797-0.27
    c-0.15-0.156-0.229-0.384-0.229-0.695v-0.75c0-0.306,0.078-0.534,0.229-0.696c0.148-0.162,0.395-0.252,0.719-0.27v0.006v-0.006
    c0.365,0,0.637,0.096,0.797,0.276C68.83,13.807,68.902,14.035,68.902,14.347z M68.674,14.347c0-0.252-0.053-0.426-0.16-0.546
    c-0.127-0.132-0.336-0.198-0.631-0.198c-0.264,0.012-0.449,0.078-0.562,0.198c-0.109,0.114-0.162,0.294-0.162,0.54v0.209h1.516
    V14.347z"/>
  <path fill="#FFFFFF" d="M45.832,21.415v1.726c0,0.066-0.053,0.115-0.113,0.115c-0.066,0-0.113-0.049-0.113-0.115v-1.726
    c0-0.21-0.049-0.36-0.139-0.456c-0.113-0.126-0.301-0.18-0.516-0.168c-0.168,0.018-0.498,0.223-0.684,0.359
    c0.012,0.084,0.023,0.168,0.023,0.265v1.726c0,0.066-0.053,0.115-0.119,0.115c-0.061,0-0.115-0.049-0.115-0.115v-1.726
    c0-0.21-0.041-0.36-0.131-0.456c-0.113-0.126-0.301-0.18-0.527-0.168c-0.15,0.012-0.463,0.204-0.654,0.342v2.008
    c0,0.061-0.049,0.115-0.113,0.115c-0.061,0-0.115-0.055-0.115-0.115v-2.458c0-0.06,0.055-0.108,0.115-0.108
    c0.064,0,0.113,0.048,0.113,0.108v0.174c0.18-0.114,0.449-0.27,0.635-0.282c0.295-0.024,0.547,0.06,0.709,0.228
    c0.035,0.036,0.066,0.078,0.096,0.126c0.162-0.114,0.516-0.336,0.75-0.354c0.287-0.024,0.539,0.06,0.701,0.228
    C45.766,20.941,45.832,21.145,45.832,21.415z"/>
  <path fill="#FFFFFF" d="M48.742,22.914v0.227c0,0.066-0.053,0.115-0.113,0.115c-0.066,0-0.113-0.049-0.113-0.115v-0.047
    c-0.229,0.107-0.486,0.162-0.791,0.162c-0.361,0-0.619-0.09-0.781-0.27c-0.143-0.156-0.215-0.396-0.215-0.702v-1.595
    c0-0.06,0.053-0.114,0.113-0.114s0.115,0.054,0.115,0.114v1.595c0,0.252,0.053,0.432,0.154,0.546
    c0.121,0.132,0.324,0.197,0.613,0.197c0.287,0,0.527-0.047,0.73-0.155c0,0,0.023-0.012,0.061-0.03v-2.152
    c0-0.06,0.047-0.114,0.113-0.114c0.061,0,0.113,0.054,0.113,0.114v2.194C48.742,22.896,48.742,22.902,48.742,22.914z"/>
  <path fill="#FFFFFF" d="M49.789,23.141v-3.729c0-0.066,0.053-0.114,0.113-0.114c0.066,0,0.113,0.048,0.113,0.114v3.729
    c0,0.061-0.047,0.115-0.113,0.115C49.842,23.256,49.789,23.201,49.789,23.141z"/>
  <path fill="#FFFFFF" d="M52.391,23.135c0,0.061-0.047,0.115-0.113,0.115c0,0,0,0-0.006,0c-0.078,0-0.57-0.012-0.924-0.36
    C51.113,22.662,51,22.351,51,21.954v-1.271V19.52c0-0.06,0.049-0.114,0.113-0.114c0.061,0,0.109,0.054,0.109,0.114v1.049h0.797
    c0.066,0,0.113,0.054,0.113,0.114c0,0.06-0.047,0.114-0.113,0.114h-0.797v1.157c0,0.33,0.096,0.594,0.281,0.774
    c0.307,0.299,0.768,0.293,0.768,0.293c0.006,0,0.006,0,0.006,0C52.338,23.021,52.391,23.07,52.391,23.135z"/>
  <path fill="#FFFFFF" d="M53.586,19.802c0,0.09-0.078,0.168-0.168,0.168s-0.162-0.078-0.162-0.168s0.072-0.162,0.162-0.162
    S53.586,19.712,53.586,19.802z M53.531,20.689v2.451c0,0.066-0.047,0.115-0.113,0.115c-0.061,0-0.107-0.049-0.107-0.115v-2.451
    c0-0.06,0.047-0.114,0.107-0.114C53.484,20.575,53.531,20.629,53.531,20.689z"/>
  <path fill="#FFFFFF" d="M57.947,21.415v1.726c0,0.066-0.055,0.115-0.115,0.115c-0.064,0-0.113-0.049-0.113-0.115v-1.726
    c0-0.21-0.049-0.36-0.139-0.456c-0.113-0.126-0.299-0.18-0.516-0.168c-0.168,0.018-0.496,0.223-0.684,0.359
    c0.014,0.084,0.025,0.168,0.025,0.265v1.726c0,0.066-0.055,0.115-0.121,0.115c-0.059,0-0.113-0.049-0.113-0.115v-1.726
    c0-0.21-0.043-0.36-0.133-0.456c-0.113-0.126-0.299-0.18-0.527-0.168c-0.15,0.012-0.461,0.204-0.652,0.342v2.008
    c0,0.061-0.049,0.115-0.115,0.115c-0.061,0-0.113-0.055-0.113-0.115v-2.458c0-0.06,0.053-0.108,0.113-0.108
    c0.066,0,0.115,0.048,0.115,0.108v0.174c0.18-0.114,0.449-0.27,0.635-0.282c0.293-0.024,0.545,0.06,0.707,0.228
    c0.037,0.036,0.066,0.078,0.096,0.126c0.162-0.114,0.516-0.336,0.75-0.354c0.289-0.024,0.541,0.06,0.701,0.228
    C57.881,20.941,57.947,21.145,57.947,21.415z"/>
  <path fill="#FFFFFF" d="M60.814,21.547v0.317c0,0.061-0.053,0.114-0.113,0.114H59.07v0.312c0,0.246,0.055,0.426,0.162,0.54
    c0.125,0.132,0.336,0.197,0.635,0.197c0.264,0,0.486-0.035,0.66-0.102c0.061-0.023,0.125,0,0.15,0.061
    c0.023,0.059-0.006,0.125-0.066,0.148c-0.203,0.078-0.449,0.121-0.744,0.121c-0.365,0-0.635-0.09-0.797-0.27
    c-0.15-0.156-0.229-0.384-0.229-0.696v-0.749c0-0.307,0.078-0.533,0.229-0.696c0.15-0.162,0.396-0.252,0.719-0.27v0.006v-0.006
    c0.367,0,0.637,0.096,0.799,0.276C60.744,21.008,60.814,21.234,60.814,21.547z M60.588,21.547c0-0.252-0.055-0.426-0.162-0.546
    c-0.127-0.132-0.336-0.198-0.631-0.198c-0.264,0.012-0.449,0.078-0.562,0.198c-0.107,0.114-0.162,0.294-0.162,0.54v0.21h1.518
    V21.547z"/>
  <path fill="#FFFFFF" d="M63.73,19.526v3.615c0,0.066-0.053,0.115-0.113,0.115c-0.066,0-0.115-0.049-0.115-0.115v-0.059
    c-0.232,0.113-0.502,0.174-0.803,0.174c-0.354,0-0.611-0.09-0.773-0.27c-0.145-0.156-0.217-0.39-0.217-0.702v-0.737
    c0-0.306,0.072-0.539,0.217-0.696c0.162-0.18,0.42-0.27,0.773-0.27c0.312,0,0.57,0.054,0.803,0.167v-1.223
    c0-0.06,0.049-0.114,0.115-0.114C63.678,19.412,63.73,19.466,63.73,19.526z M63.502,22.824v-1.811
    c-0.018-0.013-0.035-0.024-0.059-0.037l-0.031-0.024c-0.191-0.096-0.432-0.15-0.713-0.15c-0.287,0-0.492,0.066-0.605,0.198
    c-0.102,0.114-0.156,0.294-0.156,0.546v0.737c0,0.252,0.055,0.432,0.156,0.546c0.113,0.132,0.318,0.197,0.605,0.197
    c0.275,0,0.51-0.054,0.721-0.155C63.42,22.872,63.461,22.854,63.502,22.824z"/>
  <path fill="#FFFFFF" d="M65.105,19.802c0,0.09-0.078,0.168-0.168,0.168s-0.162-0.078-0.162-0.168s0.072-0.162,0.162-0.162
    S65.105,19.712,65.105,19.802z M65.051,20.689v2.451c0,0.066-0.047,0.115-0.113,0.115c-0.061,0-0.107-0.049-0.107-0.115v-2.451
    c0-0.06,0.047-0.114,0.107-0.114C65.004,20.575,65.051,20.629,65.051,20.689z"/>
  <path fill="#FFFFFF" d="M67.975,22.74c0,0,0,0,0,0.006v0.395c0,0.061-0.049,0.115-0.115,0.115c-0.059,0-0.113-0.055-0.113-0.115
    v-0.102c-0.191,0.133-0.48,0.217-0.768,0.217c-0.18,0-0.348-0.031-0.492-0.09C66.162,23.021,66,22.758,66,22.374
    c0-0.222,0.072-0.396,0.211-0.521c0.209-0.191,0.551-0.275,1.031-0.246c0.203,0.013,0.385,0.042,0.504,0.066v-0.216
    c0-0.223-0.049-0.378-0.145-0.48c-0.113-0.12-0.311-0.174-0.588-0.174c-0.246,0-0.449,0.03-0.611,0.09
    c-0.061,0.024-0.125-0.006-0.15-0.06c-0.018-0.06,0.014-0.126,0.066-0.15c0.191-0.072,0.426-0.108,0.695-0.108
    c0.342,0,0.594,0.084,0.75,0.246c0.145,0.144,0.211,0.354,0.211,0.636v0.354c0,0,0,0,0,0.006V22.74z M67.746,22.71V21.9
    c-0.102-0.018-0.301-0.054-0.521-0.065c-0.055-0.006-0.107-0.006-0.162-0.006c-0.324,0-0.559,0.065-0.695,0.186
    c-0.096,0.09-0.139,0.204-0.139,0.359c0,0.294,0.107,0.48,0.348,0.582c0.115,0.048,0.252,0.071,0.402,0.071
    c0.264,0,0.527-0.077,0.678-0.203C67.691,22.794,67.729,22.752,67.746,22.71z"/>
  <path fill="#FFFFFF" d="M43.115,27.889v2.369c0,0.959-0.623,1.576-1.594,1.576c-0.061,0-0.115-0.047-0.115-0.113
    c0-0.061,0.055-0.113,0.115-0.113c0.846,0,1.367-0.516,1.367-1.35v-2.369c0-0.061,0.053-0.113,0.113-0.113
    C43.068,27.775,43.115,27.828,43.115,27.889z M43.17,27.002c0,0.09-0.072,0.168-0.162,0.168s-0.168-0.078-0.168-0.168
    s0.078-0.162,0.168-0.162S43.17,26.912,43.17,27.002z"/>
  <path fill="#FFFFFF" d="M44.064,29.49v-0.75c0-0.965,0.73-0.965,0.977-0.965s0.979,0,0.979,0.965v0.75
    c0,0.959-0.732,0.965-0.979,0.965S44.064,30.455,44.064,29.49z M44.285,28.74v0.75c0,0.648,0.367,0.738,0.756,0.738
    c0.391,0,0.756-0.09,0.756-0.738v-0.75c0-0.646-0.365-0.738-0.756-0.738C44.652,28.002,44.285,28.094,44.285,28.74z"/>
  <path fill="#FFFFFF" d="M48.93,30.113v0.229c0,0.066-0.055,0.113-0.115,0.113c-0.064,0-0.113-0.047-0.113-0.113v-0.049
    c-0.229,0.109-0.486,0.162-0.791,0.162c-0.359,0-0.617-0.09-0.779-0.27c-0.145-0.156-0.217-0.396-0.217-0.701v-1.596
    c0-0.061,0.055-0.113,0.113-0.113c0.061,0,0.115,0.053,0.115,0.113v1.596c0,0.252,0.053,0.432,0.156,0.545
    c0.119,0.133,0.322,0.199,0.611,0.199c0.287,0,0.527-0.049,0.73-0.156c0,0,0.025-0.012,0.061-0.031v-2.152
    c0-0.061,0.049-0.113,0.113-0.113c0.061,0,0.115,0.053,0.115,0.113v2.195C48.93,30.096,48.93,30.102,48.93,30.113z"/>
  <path fill="#FFFFFF" d="M51.174,27.895c0,0.061-0.055,0.107-0.115,0.107c-0.023,0-0.041,0-0.064,0
    c-0.289,0-0.523,0.049-0.732,0.156c0,0-0.023,0.012-0.061,0.031v2.152c0,0.066-0.047,0.113-0.113,0.113
    c-0.061,0-0.113-0.047-0.113-0.113v-2.195c0-0.012,0-0.018,0-0.029v-0.229c0-0.061,0.053-0.113,0.113-0.113
    c0.066,0,0.113,0.053,0.113,0.113v0.049c0.229-0.109,0.486-0.162,0.793-0.162c0.023,0,0.047,0,0.07,0
    C51.131,27.781,51.18,27.828,51.174,27.895z"/>
  <path fill="#FFFFFF" d="M54.021,28.746v1.596c0,0.066-0.047,0.113-0.107,0.113c-0.066,0-0.113-0.047-0.113-0.113v-1.596
    c0-0.246-0.055-0.432-0.162-0.545c-0.113-0.133-0.318-0.199-0.605-0.199c-0.289,0-0.527,0.049-0.732,0.156
    c0,0-0.029,0.012-0.059,0.031v2.152c0,0.066-0.055,0.113-0.115,0.113c-0.066,0-0.113-0.047-0.113-0.113v-2.195
    c0-0.012,0-0.018,0-0.029v-0.229c0-0.061,0.047-0.113,0.113-0.113c0.061,0,0.115,0.053,0.115,0.113v0.049
    c0.227-0.109,0.484-0.162,0.791-0.162c0.354,0,0.617,0.09,0.779,0.27C53.951,28.201,54.021,28.441,54.021,28.746z"/>
  <path fill="#FFFFFF" d="M56.891,29.939c0,0,0,0,0,0.006v0.396c0,0.061-0.049,0.113-0.113,0.113c-0.061,0-0.115-0.053-0.115-0.113
    V30.24c-0.191,0.131-0.479,0.215-0.768,0.215c-0.18,0-0.348-0.029-0.49-0.09c-0.324-0.143-0.486-0.408-0.486-0.791
    c0-0.223,0.072-0.396,0.209-0.521c0.211-0.191,0.553-0.275,1.031-0.246c0.205,0.012,0.385,0.041,0.504,0.066v-0.217
    c0-0.221-0.047-0.377-0.143-0.479c-0.115-0.121-0.312-0.176-0.588-0.176c-0.246,0-0.451,0.031-0.611,0.092
    c-0.061,0.023-0.127-0.008-0.15-0.061c-0.018-0.061,0.012-0.127,0.066-0.15c0.191-0.072,0.426-0.107,0.695-0.107
    c0.342,0,0.594,0.084,0.75,0.246c0.143,0.143,0.209,0.354,0.209,0.635v0.354c0,0,0,0,0,0.006V29.939z M56.662,29.91V29.1
    c-0.102-0.018-0.299-0.053-0.521-0.064c-0.053-0.006-0.107-0.006-0.162-0.006c-0.324,0-0.557,0.064-0.695,0.186
    c-0.096,0.09-0.137,0.203-0.137,0.359c0,0.293,0.107,0.48,0.348,0.582c0.113,0.047,0.252,0.072,0.4,0.072
    c0.264,0,0.527-0.078,0.678-0.205C56.609,29.994,56.645,29.951,56.662,29.91z"/>
  <path fill="#FFFFFF" d="M57.936,30.342v-3.73c0-0.066,0.053-0.113,0.113-0.113c0.066,0,0.115,0.047,0.115,0.113v3.73
    c0,0.061-0.049,0.113-0.115,0.113C57.988,30.455,57.936,30.402,57.936,30.342z"/>
  <path fill="#FFFFFF" d="M59.537,27.002c0,0.09-0.078,0.168-0.168,0.168s-0.162-0.078-0.162-0.168s0.072-0.162,0.162-0.162
    S59.537,26.912,59.537,27.002z M59.482,27.889v2.453c0,0.066-0.047,0.113-0.113,0.113c-0.061,0-0.107-0.047-0.107-0.113v-2.453
    c0-0.061,0.047-0.113,0.107-0.113C59.436,27.775,59.482,27.828,59.482,27.889z"/>
  <path fill="#FFFFFF" d="M60.516,30.359c-0.061-0.018-0.096-0.084-0.078-0.145c0.018-0.059,0.084-0.09,0.145-0.07
    c0.336,0.102,0.803,0.131,1.043-0.043c0.113-0.084,0.168-0.203,0.168-0.365c0-0.379-0.295-0.498-0.637-0.643
    c-0.316-0.131-0.676-0.287-0.676-0.707c0-0.174,0.059-0.318,0.186-0.42c0.305-0.258,0.904-0.186,1.145-0.145
    c0.061,0.006,0.102,0.066,0.096,0.133c-0.012,0.061-0.072,0.102-0.131,0.09c-0.342-0.061-0.773-0.066-0.967,0.096
    c-0.07,0.061-0.102,0.139-0.102,0.246c0,0.258,0.205,0.359,0.541,0.498c0.342,0.145,0.768,0.324,0.768,0.852
    c0,0.234-0.084,0.42-0.252,0.545c-0.174,0.127-0.402,0.174-0.637,0.174C60.912,30.455,60.689,30.414,60.516,30.359z"/>
  <path fill="#FFFFFF" d="M66.256,28.615v1.727c0,0.066-0.055,0.113-0.113,0.113c-0.066,0-0.115-0.047-0.115-0.113v-1.727
    c0-0.211-0.047-0.361-0.137-0.457c-0.115-0.125-0.301-0.18-0.516-0.168c-0.168,0.02-0.498,0.223-0.684,0.361
    c0.012,0.084,0.023,0.168,0.023,0.264v1.727c0,0.066-0.055,0.113-0.119,0.113c-0.061,0-0.115-0.047-0.115-0.113v-1.727
    c0-0.211-0.041-0.361-0.131-0.457c-0.115-0.125-0.301-0.18-0.527-0.168c-0.15,0.012-0.463,0.205-0.654,0.342v2.01
    c0,0.061-0.049,0.113-0.113,0.113c-0.061,0-0.115-0.053-0.115-0.113v-2.459c0-0.061,0.055-0.107,0.115-0.107
    c0.064,0,0.113,0.047,0.113,0.107v0.174c0.18-0.113,0.449-0.27,0.635-0.281c0.295-0.023,0.547,0.061,0.709,0.227
    c0.035,0.037,0.064,0.078,0.096,0.127c0.162-0.113,0.516-0.336,0.75-0.354c0.287-0.023,0.539,0.061,0.701,0.227
    C66.189,28.141,66.256,28.344,66.256,28.615z"/>
</g>
<line fill="#FFFFFF" stroke="#FFFFFF" stroke-width="0.35" stroke-miterlimit="10" x1="34.525" y1="0" x2="34.722" y2="35.275"/>
</svg>
